Coordinates
version=1
nRows=34
nColumns=33
inDegrees=yes

Units are S.I. units (second, meters, Newtons, ...)
Angles are in degrees.

endheader
time	ground_thorax_rot_x	ground_thorax_rot_y	ground_thorax_rot_z	ground_thorax_tx	ground_thorax_ty	ground_thorax_tz	clav_prot_r	clav_elev_r	scapula_abduction_r	scapula_elevation_r	scapula_upward_rot_r	scapula_winging_r	shoulder_elv_r	plane_of_elev_r	axial_rot_r	elbow_flexion_r	pro_sup_r	wrist_flex_r	wrist_dev_r	clav_prot_l	clav_elev_l	scapula_abduction_l	scapula_elevation_l	scapula_upward_rot_l	scapula_winging_l	shoulder_elv_l	plane_of_elev_l	axial_rot_l	elbow_flexion_l	pro_sup_l	wrist_flex_l	wrist_dev_l	
10.1600	33.724591	23.223477	26.845383	-228.859322	830.964177	6.792677	13.068942	45.000000	45.000000	45.000000	45.000000	-2544.779125	-1602.013717	-90.000000	-100.229886	358.412534	-119.920543	21.912733	15.402253	11.237814	-45.000000	-40.174487	45.000000	-44.993287	821.727454	-2802.541488	21.137062	-56.473200	-349.319269	7.882061	4.771955	-19.865007	
10.1700	33.874330	22.939526	26.475067	-230.534401	831.379819	6.891864	13.083643	45.000000	45.000000	45.000000	45.000000	-2544.753531	-1601.949580	-90.000000	-100.279492	358.460927	-120.073354	21.971757	15.353243	11.184918	-45.000000	-40.095781	45.000000	-44.987665	821.806719	-2802.477367	21.101053	-56.652682	-349.284469	8.474260	4.576112	-19.834485	
10.1800	34.016603	22.661247	26.115678	-232.159573	831.747847	7.003056	13.100775	45.000000	45.000000	45.000000	45.000000	-2544.734374	-1601.874508	-90.000000	-100.340314	358.519179	-120.255906	22.023074	15.307651	11.126409	-45.000000	-40.021399	45.000000	-44.978768	821.879457	-2802.419969	21.058311	-56.811239	-349.250132	9.108464	4.388448	-19.801834	
10.1900	34.150620	22.389828	25.768857	-233.732650	832.069427	7.124831	13.120068	45.000000	45.000000	45.000000	45.000000	-2544.720699	-1601.788374	-90.000000	-100.412579	358.588884	-120.467882	22.067406	15.266340	11.062040	-45.000000	-39.954696	45.000000	-44.959558	821.948924	-2802.367443	21.007624	-56.965008	-349.214676	9.781282	4.213170	-19.769385	
10.2000	34.273664	22.126065	25.436405	-235.253395	832.346293	7.255482	13.141398	45.000000	45.000000	45.000000	45.000000	-2544.716829	-1601.689904	-90.000000	-100.497636	358.667699	-120.708394	22.105242	15.228214	10.991286	-45.000000	-39.896350	45.000000	-44.934281	822.015129	-2802.316716	20.949227	-57.112618	-349.177809	10.486382	4.049868	-19.737456	
10.2100	34.388880	21.867299	25.111079	-236.723586	832.580340	7.393292	13.164959	45.000000	45.000000	45.000000	45.000000	-2544.719596	-1601.580043	-90.000000	-100.594686	358.761033	-120.974484	22.139521	15.193391	10.903636	-45.000000	-39.867669	45.000000	-44.863509	822.072234	-2802.273659	20.862201	-57.257455	-349.148693	11.215585	3.901585	-19.704793	
10.2200	34.497970	21.614332	24.796791	-238.146909	832.773183	7.536748	13.190318	45.000000	45.000000	45.000000	45.000000	-2544.728147	-1601.462527	-90.000000	-100.699985	358.861913	-121.265454	22.158776	15.156194	10.815270	-45.000000	-39.831055	45.000000	-44.807897	822.125687	-2802.232201	20.782680	-57.397863	-349.120219	11.961148	3.752965	-19.667819	
10.2300	34.606299	21.363175	24.487147	-239.528117	832.926022	7.684804	13.217664	45.000000	45.000000	45.000000	45.000000	-2544.738848	-1601.341445	-90.000000	-100.809357	358.970674	-121.581491	22.161194	15.115119	10.728572	-45.000000	-39.781563	45.000000	-44.766066	822.172677	-2802.195669	20.715544	-57.513242	-349.093763	12.719337	3.602829	-19.625421	
10.2400	34.714558	21.114177	24.188199	-240.872477	833.039742	7.836823	13.246717	45.000000	45.000000	45.000000	45.000000	-2544.751306	-1601.221257	-90.000000	-100.918158	359.079042	-121.924063	22.141696	15.067216	10.659029	-45.000000	-39.689575	45.000000	-44.786251	822.222066	-2802.157506	20.689359	-57.613342	-349.057229	13.492347	3.445161	-19.578055	
10.2500	34.827670	20.860997	23.889757	-242.184740	833.115322	7.992364	13.278118	45.000000	45.000000	45.000000	45.000000	-2544.764138	-1601.106258	-90.000000	-101.021965	359.189972	-122.291587	22.108440	15.013987	10.591931	-45.000000	-39.584704	45.000000	-44.813328	822.264554	-2802.127822	20.673945	-57.683286	-349.021976	14.280243	3.288239	-19.525418	
10.2600	34.943773	20.605744	23.600073	-243.468436	833.154280	8.150717	13.311546	45.000000	45.000000	45.000000	45.000000	-2544.780141	-1601.001012	-90.000000	-101.116056	359.293844	-122.681178	22.058492	14.952818	10.537074	-45.000000	-39.445804	45.000000	-44.887177	822.307641	-2802.099984	20.689563	-57.739903	-348.979888	15.084095	3.125679	-19.467411	
10.2700	35.062754	20.345924	23.313906	-244.725666	833.159112	8.310506	13.347454	45.000000	45.000000	45.000000	45.000000	-2544.800659	-1600.907168	-90.000000	-101.198748	359.392524	-123.085808	22.004342	14.887287	10.477873	-45.000000	-39.308674	45.000000	-44.948717	822.344708	-2802.079926	20.700819	-57.778850	-348.938530	15.901127	2.970990	-19.406592	
10.2800	35.181474	20.083781	23.036038	-245.957481	833.133537	8.469397	13.385411	45.000000	45.000000	45.000000	45.000000	-2544.828285	-1600.826516	-90.000000	-101.268274	359.481701	-123.495684	21.947873	14.817361	10.413693	-45.000000	-39.175912	45.000000	-45.000000	822.378250	-2802.065691	20.704513	-57.821385	-348.898711	16.726206	2.823417	-19.342909	
10.2900	35.301214	19.817808	22.760825	-247.163948	833.082319	8.624059	13.425252	45.000000	45.000000	45.000000	45.000000	-2544.860252	-1600.760302	-90.000000	-101.323486	359.565106	-123.898578	21.894825	14.745486	10.332794	-45.000000	-39.071806	45.000000	-45.000000	822.401776	-2802.063703	20.676526	-57.863093	-348.870490	17.549890	2.688527	-19.276025	
10.3000	35.421700	19.551810	22.494712	-248.344584	833.010897	8.770356	13.465844	45.000000	45.000000	45.000000	45.000000	-2544.893203	-1600.709906	-90.000000	-101.363006	359.638496	-124.284368	21.836632	14.670211	10.251740	-45.000000	-38.963685	45.000000	-45.000000	822.422729	-2802.069082	20.648729	-57.908534	-348.846804	18.366625	2.556407	-19.204816	
10.3100	35.541809	19.286561	22.237563	-249.499290	832.924846	8.903742	13.506594	45.000000	45.000000	45.000000	45.000000	-2544.926684	-1600.672124	-90.000000	-101.390001	359.703619	-124.645307	21.775553	14.594157	10.173010	-45.000000	-38.851774	45.000000	-45.000000	822.442263	-2802.080021	20.622675	-57.947521	-348.825265	19.175269	2.430848	-19.131886	
10.3200	35.661108	19.023483	21.987651	-250.628615	832.829375	9.019678	13.546795	45.000000	45.000000	45.000000	45.000000	-2544.961095	-1600.642929	-90.000000	-101.408477	359.763099	-124.975071	21.712236	14.518742	10.096608	-45.000000	-38.737492	45.000000	-45.000000	822.459840	-2802.096089	20.598383	-57.986002	-348.804626	19.975598	2.311734	-19.058742	
10.3300	35.777909	18.764088	21.745148	-251.734004	832.728860	9.114057	13.586041	45.000000	45.000000	45.000000	45.000000	-2544.998769	-1600.617441	-90.000000	-101.423324	359.819477	-125.269560	21.648451	14.445320	10.021056	-45.000000	-38.623086	45.000000	-45.000000	822.475786	-2802.114725	20.574843	-58.026460	-348.782830	20.765494	2.199480	-18.987195	
10.3400	35.892565	18.508924	21.508767	-252.817502	832.626598	9.183501	13.624027	45.000000	45.000000	45.000000	44.999999	-2545.039437	-1600.592292	-90.000000	-101.437927	359.876017	-125.527366	21.584414	14.374836	9.945967	-45.000000	-38.509387	45.000000	-45.000000	822.489512	-2802.135880	20.551853	-58.069279	-348.759015	21.542503	2.093706	-18.918435	
10.3500	36.004204	18.257624	21.278510	-253.881591	832.524670	9.225583	13.660648	45.000000	45.000000	45.000000	44.999999	-2545.084921	-1600.564063	-90.000000	-101.455750	359.934029	-125.749859	21.521062	14.307896	9.870055	-45.000000	-38.398588	45.000000	-45.000000	822.501604	-2802.156887	20.528200	-58.117051	-348.732347	22.304078	1.994726	-18.853987	
10.3600	36.114799	18.009792	21.051881	-254.928439	832.423996	9.238870	13.695914	45.000000	45.000000	45.000000	44.999998	-2545.133523	-1600.531675	-90.000000	-101.477932	359.996178	-125.940122	21.457603	14.244920	9.791688	-45.000000	-38.292300	45.000000	-45.000000	822.509790	-2802.179530	20.502550	-58.169474	-348.704026	23.047317	1.902337	-18.794354	
10.3700	36.224199	17.763670	20.831352	-255.959803	832.324399	9.222923	13.729907	45.000000	45.000000	45.000000	44.999997	-2545.184703	-1600.495575	-90.000000	-101.504065	360.062497	-126.103261	21.392757	14.186062	9.713283	-45.000000	-38.187124	45.000000	-45.000000	822.516997	-2802.203084	20.476113	-58.222737	-348.675347	23.771996	1.814435	-18.738661	
10.3800	36.332980	17.519902	20.618058	-256.976496	832.224783	9.178246	13.762799	45.000000	45.000000	45.000000	44.999994	-2545.237108	-1600.457473	-90.000000	-101.532436	360.133310	-126.245250	21.325530	14.131761	9.636683	-45.000000	-38.082126	45.000000	-45.000000	822.524648	-2802.227800	20.449301	-58.276371	-348.646856	24.482271	1.729617	-18.686398	
10.3900	36.440298	17.279348	20.415018	-257.978558	832.123285	9.106250	13.794644	45.000000	45.000000	45.000000	44.999989	-2545.292099	-1600.418598	-90.000000	-101.561785	360.206247	-126.372089	21.256073	14.081745	9.563544	-45.000000	-37.975208	45.000000	-45.000000	822.536022	-2802.250922	20.423849	-58.328441	-348.617475	25.184384	1.645189	-18.636131	
10.4000	36.547668	17.043157	20.219851	-258.965024	832.017488	9.009241	13.825378	45.000000	45.000000	45.000000	44.999980	-2545.348571	-1600.380795	-90.000000	-101.590260	360.281615	-126.487800	21.185941	14.036453	9.491817	-45.000000	-37.871109	45.000000	-45.000000	822.547404	-2802.274905	20.395888	-58.385397	-348.587091	25.884604	1.562804	-18.588699	
10.4100	36.654356	16.812851	20.034888	-259.934140	831.904629	8.890456	13.855020	45.000000	45.000000	45.000000	44.999965	-2545.406529	-1600.346040	-90.000000	-101.615851	360.355705	-126.595647	21.114694	13.994217	9.424081	-45.000000	-37.764061	45.000000	-45.000000	822.562418	-2802.297743	20.370315	-58.440516	-348.555028	26.588213	1.477629	-18.540435	
10.4200	36.760170	16.590228	19.858238	-260.883344	831.781869	8.754077	13.883492	45.000000	44.999999	45.000000	44.999937	-2545.465690	-1600.315533	-90.000000	-101.637345	360.427825	-126.696814	21.046084	13.955494	9.359449	-45.000000	-37.659753	45.000000	-45.000000	822.577476	-2802.320771	20.342486	-58.504642	-348.520461	27.301552	1.394012	-18.493948	
10.4300	36.865387	16.376590	19.687966	-261.809239	831.646612	8.605207	13.910724	45.000000	44.999999	45.000000	44.999887	-2545.525440	-1600.290292	-90.000000	-101.653719	360.493498	-126.791218	20.978922	13.916860	9.298269	-45.000000	-37.551438	45.000000	-45.000000	822.594333	-2802.342644	20.319996	-58.570098	-348.481804	28.025617	1.305852	-18.444565	
10.4400	36.966158	16.174937	19.524667	-262.707734	831.496788	8.449649	13.936564	45.000000	44.999998	45.000000	44.999800	-2545.589238	-1600.270020	-90.000000	-101.665277	360.551820	-126.876855	20.919416	13.879470	9.240351	-45.000000	-37.449984	45.000000	-45.000000	822.609214	-2802.362852	20.294776	-58.647986	-348.438919	28.764056	1.220689	-18.396962	
10.4500	37.061926	15.985172	19.368981	-263.573756	831.331214	8.293645	13.960953	45.000000	44.999996	45.000000	44.999636	-2545.654516	-1600.256058	-90.000000	-101.670661	360.598328	-126.950898	20.864730	13.839268	9.187743	-45.000000	-37.345398	45.000000	-45.000000	822.626314	-2802.380731	20.275828	-58.725277	-348.394014	29.516680	1.130105	-18.344107	
10.4600	37.146695	15.812157	19.225636	-264.401538	831.149738	8.143333	13.983631	45.000000	44.999993	45.000000	44.999361	-2545.726664	-1600.246272	-90.000000	-101.671983	360.631358	-127.009508	20.823835	13.799200	9.140592	-45.000000	-37.251546	45.000000	-45.000000	822.643996	-2802.392883	20.252566	-58.813252	-348.343848	30.287377	1.043991	-18.293474	
10.4700	37.223093	15.654834	19.094446	-265.184647	830.953298	8.004252	14.004377	45.000000	44.999988	45.000000	44.998821	-2545.797762	-1600.242723	-90.000000	-101.667146	360.650180	-127.047671	20.790971	13.755605	9.099853	-45.000000	-37.158328	45.000000	-45.000000	822.664954	-2802.403740	20.233923	-58.897136	-348.293011	31.075813	0.951811	-18.235916	
10.4800	37.287773	15.516093	18.975402	-265.916390	830.743798	7.880810	14.022762	45.000000	44.999979	45.000000	44.997986	-2545.872204	-1600.241649	-90.000000	-101.659906	360.652253	-127.061639	20.776024	13.712677	9.065803	-45.000000	-37.076708	45.000000	-45.000000	822.684124	-2802.409601	20.212459	-58.989631	-348.239096	31.883187	0.866160	-18.180936	
10.4900	37.342726	15.395587	18.873824	-266.590201	830.523722	7.775989	14.038788	45.000000	44.999963	45.000000	44.996119	-2545.938340	-1600.246021	-90.000000	-101.647289	360.644914	-127.046530	20.768423	13.667732	9.037252	-45.000000	-36.997085	45.000000	-45.000000	822.706800	-2802.418561	20.194192	-59.073544	-348.188558	32.704449	0.773444	-18.116461	
